<svg width="47" height="47" viewBox="0 0 47 47" fill="none" xmlns="http://www.w3.org/2000/svg">
<path d="M5.875 17.625H35.25V29.375H5.875V17.625Z" fill="black"/>
<path d="M5.875 11.75C4.31685 11.75 2.82252 12.369 1.72075 13.4707C0.618972 14.5725 0 16.0669 0 17.625L0 29.375C0 30.9331 0.618972 32.4275 1.72075 33.5293C2.82252 34.631 4.31685 35.25 5.875 35.25H35.25C36.8081 35.25 38.3025 34.631 39.4043 33.5293C40.506 32.4275 41.125 30.9331 41.125 29.375V17.625C41.125 16.0669 40.506 14.5725 39.4043 13.4707C38.3025 12.369 36.8081 11.75 35.25 11.75H5.875ZM35.25 14.6875C36.0291 14.6875 36.7762 14.997 37.3271 15.5479C37.878 16.0988 38.1875 16.8459 38.1875 17.625V29.375C38.1875 30.1541 37.878 30.9012 37.3271 31.4521C36.7762 32.003 36.0291 32.3125 35.25 32.3125H5.875C5.09593 32.3125 4.34876 32.003 3.79787 31.4521C3.24699 30.9012 2.9375 30.1541 2.9375 29.375V17.625C2.9375 16.8459 3.24699 16.0988 3.79787 15.5479C4.34876 14.997 5.09593 14.6875 5.875 14.6875H35.25ZM47 23.5C47 24.6686 46.5358 25.7894 45.7094 26.6157C44.8831 27.442 43.7624 27.9062 42.5938 27.9062V19.0938C43.7624 19.0938 44.8831 19.558 45.7094 20.3843C46.5358 21.2106 47 22.3314 47 23.5Z" fill="black"/>
</svg>
