<svg width="188" height="188" viewBox="0 0 188 188" fill="none" xmlns="http://www.w3.org/2000/svg">
<g filter="url(#filter0_d_4_64)">
<circle cx="154" cy="90" r="30" fill="#2E2E2E"/>
<path d="M167.598 92.5414L149.096 108.728C146.919 110.638 143.5 109.086 143.5 106.187V73.8135C143.499 73.1647 143.686 72.5295 144.037 71.9839C144.388 71.4383 144.889 71.0055 145.48 70.7374C146.071 70.4692 146.726 70.377 147.368 70.4719C148.01 70.5667 148.611 70.8446 149.099 71.2721L167.594 87.4586C167.957 87.7754 168.247 88.1661 168.446 88.6044C168.645 89.0428 168.748 89.5186 168.748 90C168.748 90.4814 168.645 90.9573 168.446 91.3956C168.247 91.8339 167.957 92.2246 167.594 92.5414H167.598Z" fill="#242424"/>
<circle cx="94" cy="150" r="30" fill="#2E2E2E"/>
<path d="M91.0281 164.098L74.8416 145.596C72.9313 143.419 74.4838 140 77.3829 140H109.756C110.405 139.999 111.04 140.186 111.586 140.537C112.131 140.888 112.564 141.389 112.832 141.98C113.1 142.571 113.192 143.226 113.098 143.868C113.003 144.51 112.725 145.111 112.297 145.599L96.1108 164.094C95.794 164.457 95.4034 164.747 94.965 164.946C94.5267 165.145 94.0508 165.248 93.5694 165.248C93.088 165.248 92.6122 165.145 92.1738 164.946C91.7355 164.747 91.3448 164.457 91.0281 164.094V164.098Z" fill="#242424"/>
<circle cx="94" cy="30" r="30" fill="#2E2E2E"/>
<path d="M96.5414 16.4025L112.728 34.9042C114.638 37.0811 113.086 40.5 110.186 40.5H77.8135C77.1647 40.5006 76.5294 40.3141 75.9839 39.9629C75.4383 39.6117 75.0055 39.1107 74.7374 38.5199C74.4692 37.9291 74.377 37.2735 74.4719 36.6317C74.5667 35.9898 74.8445 35.3889 75.2721 34.9009L91.4586 16.4059C91.7754 16.0434 92.1661 15.7528 92.6044 15.5538C93.0427 15.3547 93.5186 15.2517 94 15.2517C94.4814 15.2517 94.9573 15.3547 95.3956 15.5538C95.8339 15.7528 96.2246 16.0434 96.5414 16.4059V16.4025Z" fill="#242424"/>
<circle cx="34" cy="90" r="30" fill="#2E2E2E"/>
<path d="M17.1508 88.0281L35.6526 71.8416C37.8294 69.9313 41.2483 71.4838 41.2483 74.3829V106.756C41.2489 107.405 41.0624 108.04 40.7112 108.586C40.36 109.131 39.859 109.564 39.2682 109.832C38.6774 110.1 38.0218 110.192 37.38 110.098C36.7381 110.003 36.1372 109.725 35.6492 109.297L17.1542 93.1108C16.7917 92.794 16.5011 92.4034 16.3021 91.965C16.103 91.5267 16 91.0508 16 90.5694C16 90.088 16.103 89.6122 16.3021 89.1738C16.5011 88.7355 16.7917 88.3448 17.1542 88.0281H17.1508Z" fill="#242424"/>
</g>
<defs>
<filter id="filter0_d_4_64" x="0" y="0" width="188" height="188" filterUnits="userSpaceOnUse" color-interpolation-filters="sRGB">
<feFlood flood-opacity="0" result="BackgroundImageFix"/>
<feColorMatrix in="SourceAlpha" type="matrix" values="0 0 0 0 0 0 0 0 0 0 0 0 0 0 0 0 0 0 127 0" result="hardAlpha"/>
<feOffset dy="4"/>
<feGaussianBlur stdDeviation="2"/>
<feComposite in2="hardAlpha" operator="out"/>
<feColorMatrix type="matrix" values="0 0 0 0 0 0 0 0 0 0 0 0 0 0 0 0 0 0 0.25 0"/>
<feBlend mode="normal" in2="BackgroundImageFix" result="effect1_dropShadow_4_64"/>
<feBlend mode="normal" in="SourceGraphic" in2="effect1_dropShadow_4_64" result="shape"/>
</filter>
</defs>
</svg>
