<svg width="73" height="73" viewBox="0 0 73 73" fill="none" xmlns="http://www.w3.org/2000/svg">
<path d="M36.5 0C16.3337 0 0 16.3337 0 36.5C0 52.6512 10.4481 66.2931 24.9569 71.1294C26.7819 71.4488 27.4662 70.3538 27.4662 69.3956C27.4662 68.5287 27.4206 65.6544 27.4206 62.5975C18.25 64.2856 15.8775 60.3619 15.1475 58.3088C14.7369 57.2594 12.9575 54.02 11.4062 53.1531C10.1287 52.4688 8.30375 50.7806 11.3606 50.735C14.235 50.6894 16.2881 53.3812 16.9725 54.4762C20.2575 59.9969 25.5044 58.4456 27.6031 57.4875C27.9225 55.115 28.8806 53.5181 29.93 52.6056C21.8088 51.6931 13.3225 48.545 13.3225 34.5837C13.3225 30.6144 14.7369 27.3294 17.0637 24.7744C16.6987 23.8619 15.4212 20.1206 17.4287 15.1019C17.4287 15.1019 20.4856 14.1438 27.4662 18.8431C30.3862 18.0219 33.4888 17.6112 36.5913 17.6112C39.6938 17.6112 42.7963 18.0219 45.7163 18.8431C52.6969 14.0981 55.7537 15.1019 55.7537 15.1019C57.7612 20.1206 56.4837 23.8619 56.1188 24.7744C58.4456 27.3294 59.86 30.5688 59.86 34.5837C59.86 48.5906 51.3281 51.6931 43.2069 52.6056C44.53 53.7463 45.6706 55.9363 45.6706 59.3581C45.6706 64.24 45.625 68.1637 45.625 69.3956C45.625 70.3538 46.3094 71.4944 48.1344 71.1294C55.3814 68.685 61.679 64.0286 66.1398 57.8161C70.6007 51.6036 73.0001 44.1482 73 36.5C73 16.3337 56.6663 0 36.5 0Z" fill="black"/>
</svg>
