<svg width="73" height="73" viewBox="0 0 73 73" fill="none" xmlns="http://www.w3.org/2000/svg">
<path d="M39.7256 6.84377C38.87 5.98844 37.7098 5.50793 36.5 5.50793C35.2901 5.50793 34.1299 5.98844 33.2743 6.84377L2.94733 37.1661C2.73523 37.3783 2.56698 37.6301 2.45219 37.9072C2.3374 38.1843 2.27832 38.4813 2.27832 38.7813C2.27832 39.0812 2.3374 39.3783 2.45219 39.6554C2.56698 39.9325 2.73523 40.1843 2.94733 40.3964C3.37568 40.8248 3.95666 41.0654 4.56245 41.0654C4.86241 41.0654 5.15943 41.0063 5.43655 40.8915C5.71367 40.7767 5.96548 40.6085 6.17758 40.3964L36.5 10.0695L66.8223 40.3964C67.2507 40.8248 67.8317 41.0654 68.4375 41.0654C69.0432 41.0654 69.6242 40.8248 70.0526 40.3964C70.4809 39.968 70.7216 39.3871 70.7216 38.7813C70.7216 38.1755 70.4809 37.5945 70.0526 37.1661L59.3125 26.4306V11.4063C59.3125 10.8012 59.0721 10.221 58.6443 9.79319C58.2165 9.36537 57.6362 9.12502 57.0312 9.12502H52.4687C51.8637 9.12502 51.2834 9.36537 50.8556 9.79319C50.4278 10.221 50.1875 10.8012 50.1875 11.4063V17.3056L39.7256 6.84377Z" fill="black"/>
<path d="M36.5 15.0243L63.875 42.3993V61.5937C63.875 63.4088 63.154 65.1495 61.8705 66.433C60.5871 67.7164 58.8463 68.4375 57.0312 68.4375H15.9688C14.1537 68.4375 12.4129 67.7164 11.1295 66.433C9.84604 65.1495 9.125 63.4088 9.125 61.5937V42.3993L36.5 15.0243Z" fill="black"/>
</svg>
