<svg width="73" height="73" viewBox="0 0 73 73" fill="none" xmlns="http://www.w3.org/2000/svg">
<g clip-path="url(#clip0_43_92)">
<path d="M0 5.22863C0 2.34056 2.39987 0 5.36094 0H67.6391C70.6001 0 73 2.34056 73 5.22863V67.7714C73 70.6594 70.6001 73 67.6391 73H5.36094C2.39987 73 0 70.6594 0 67.7714V5.22863ZM22.5524 61.1101V28.1461H11.5979V61.1101H22.5524ZM17.0774 23.6429C20.8962 23.6429 23.2733 21.1152 23.2733 17.9489C23.2049 14.7141 20.9008 12.2549 17.1504 12.2549C13.4001 12.2549 10.95 14.7186 10.95 17.9489C10.95 21.1152 13.3271 23.6429 17.0044 23.6429H17.0774ZM39.4702 61.1101V42.7004C39.4702 41.7149 39.5432 40.7294 39.8352 40.0268C40.6245 38.0604 42.4267 36.0209 45.4562 36.0209C49.421 36.0209 51.0042 39.0413 51.0042 43.4761V61.1101H61.9587V42.2031C61.9587 32.0744 56.5568 27.3659 49.348 27.3659C43.5354 27.3659 40.9302 30.5596 39.4702 32.8089V32.923H39.3972L39.4702 32.8089V28.1461H28.5202C28.6571 31.2394 28.5202 61.1101 28.5202 61.1101H39.4702Z" fill="black"/>
</g>
<defs>
<clipPath id="clip0_43_92">
<rect width="73" height="73" fill="white"/>
</clipPath>
</defs>
</svg>
