<svg width="73" height="56" viewBox="0 0 73 56" fill="none" xmlns="http://www.w3.org/2000/svg">
<path d="M61.7998 4.61586C57.0668 2.44221 52.0718 0.891706 46.9398 0.00316919C46.8933 -0.00466071 46.8455 0.00210171 46.803 0.0225269C46.7606 0.042952 46.7254 0.0760367 46.7025 0.117232C46.0592 1.25786 45.3475 2.74979 44.8502 3.91779C39.3186 3.07903 33.6921 3.07903 28.1605 3.91779C27.6081 2.61559 26.9805 1.34659 26.2808 0.117232C26.2579 0.0760367 26.2227 0.042952 26.1803 0.0225269C26.1378 0.00210171 26.09 -0.00466071 26.0435 0.00316919C20.9107 0.888294 15.9148 2.43954 11.1835 4.61586C11.1428 4.63097 11.1088 4.66008 11.0876 4.69798C1.62502 18.8372 -0.971042 32.6296 0.301896 46.2487C0.311021 46.3156 0.342958 46.3719 0.397708 46.4175C5.90907 50.4974 12.0721 53.6136 18.6249 55.6337C18.6712 55.6483 18.7209 55.6478 18.7668 55.6322C18.8128 55.6166 18.8526 55.5868 18.8804 55.547C20.2887 53.6308 21.5327 51.6096 22.6125 49.4835C22.635 49.4397 22.6427 49.3898 22.6344 49.3413C22.6262 49.2928 22.6025 49.2482 22.5669 49.2143L22.4848 49.1641C20.52 48.4066 18.6164 47.499 16.7908 46.4494C16.7398 46.4205 16.7019 46.3732 16.6849 46.3171C16.6679 46.2611 16.6732 46.2006 16.6995 46.1483L16.768 46.0616C17.1543 45.7727 17.5314 45.4761 17.8995 45.1719C17.9317 45.146 17.9704 45.1293 18.0114 45.1237C18.0524 45.1181 18.0941 45.1237 18.1321 45.14C30.0813 50.5967 43.016 50.5967 54.8192 45.14C54.8584 45.1219 54.9019 45.1153 54.9448 45.1209C54.9876 45.1266 55.0279 45.1443 55.061 45.1719C55.4291 45.4761 55.8062 45.7727 56.1925 46.0616C56.2246 46.0836 56.2506 46.1134 56.2679 46.1482C56.2853 46.1831 56.2934 46.2217 56.2916 46.2606C56.2898 46.2995 56.278 46.3372 56.2575 46.3703C56.237 46.4033 56.2083 46.4306 56.1743 46.4494C54.3566 47.5156 52.4499 48.4224 50.4757 49.1595C50.4443 49.1709 50.4157 49.1891 50.392 49.2127C50.3684 49.2364 50.3502 49.265 50.3388 49.2964C50.3277 49.3268 50.3232 49.3592 50.3256 49.3914C50.3279 49.4237 50.3371 49.4551 50.3525 49.4835C51.4475 51.605 52.7022 53.6308 54.0801 55.547C54.1079 55.5868 54.1477 55.6166 54.1937 55.6322C54.2396 55.6478 54.2893 55.6483 54.3356 55.6337C60.9013 53.6247 67.0752 50.5077 72.5902 46.4175C72.6176 46.3981 72.6404 46.373 72.6569 46.3438C72.6735 46.3146 72.6834 46.2821 72.686 46.2487C74.2098 30.5035 70.1355 16.8251 61.8911 4.70255C61.8839 4.68185 61.8719 4.66318 61.856 4.64809C61.8401 4.63301 61.8209 4.62195 61.7998 4.61586ZM24.3965 37.954C20.7966 37.954 17.8356 34.6508 17.8356 30.5993C17.8356 26.5478 20.7419 23.24 24.3965 23.24C28.0784 23.24 31.0121 26.5706 30.9573 30.5993C30.9573 34.6508 28.051 37.954 24.3965 37.954ZM48.6507 37.954C45.0555 37.954 42.0898 34.6508 42.0898 30.5993C42.0898 26.5478 44.9962 23.24 48.6507 23.24C52.3327 23.24 55.2709 26.5706 55.2116 30.5993C55.2116 34.6508 52.3327 37.954 48.6507 37.954Z" fill="black"/>
</svg>
