<svg width="73" height="73" viewBox="0 0 73 73" fill="none" xmlns="http://www.w3.org/2000/svg">
<g clip-path="url(#clip0_43_88)">
<path d="M36.5 0C26.5948 0 25.3493 0.045625 21.4574 0.219C17.5656 0.4015 14.9148 1.01287 12.5925 1.91625C10.1554 2.83024 7.94852 4.26776 6.12744 6.12744C4.26776 7.94852 2.83024 10.1554 1.91625 12.5925C1.01287 14.9102 0.396938 17.5656 0.219 21.4437C0.045625 25.3447 0 26.5857 0 36.5046C0 46.4143 0.045625 47.6553 0.219 51.5471C0.4015 55.4344 1.01287 58.0852 1.91625 60.4075C2.85156 62.8074 4.09713 64.8422 6.12744 66.8726C8.15319 68.9029 10.1881 70.153 12.5879 71.0837C14.9148 71.9871 17.5611 72.6031 21.4483 72.781C25.3447 72.9544 26.5857 73 36.5 73C46.4143 73 47.6508 72.9544 51.5471 72.781C55.4298 72.5985 58.0898 71.9871 60.4121 71.0837C62.8475 70.1692 65.0528 68.7317 66.8726 66.8726C68.9029 64.8422 70.1484 62.8074 71.0837 60.4075C71.9826 58.0852 72.5985 55.4344 72.781 51.5471C72.9544 47.6553 73 46.4143 73 36.5C73 26.5857 72.9544 25.3447 72.781 21.4483C72.5985 17.5656 71.9826 14.9102 71.0837 12.5925C70.1698 10.1554 68.7322 7.94852 66.8726 6.12744C65.0515 4.26776 62.8446 2.83024 60.4075 1.91625C58.0806 1.01287 55.4253 0.396938 51.5426 0.219C47.6462 0.045625 46.4098 0 36.4909 0H36.5ZM33.2287 6.57912H36.5046C46.2501 6.57912 47.4044 6.61106 51.2506 6.789C54.8093 6.94869 56.7438 7.54638 58.0304 8.04369C59.7323 8.70525 60.9504 9.49912 62.2279 10.7766C63.5054 12.0541 64.2948 13.2677 64.9563 14.9741C65.4582 16.2562 66.0513 18.1907 66.211 21.7494C66.3889 25.5956 66.4254 26.7499 66.4254 36.4909C66.4254 46.2318 66.3889 47.3907 66.211 51.2369C66.0513 54.7956 65.4536 56.7256 64.9563 58.0122C64.367 59.5949 63.4335 61.027 62.2234 62.2051C60.9459 63.4826 59.7323 64.2719 58.0259 64.9335C56.7484 65.4354 54.8139 66.0285 51.2506 66.1927C47.4044 66.3661 46.2501 66.4072 36.5046 66.4072C26.7591 66.4072 25.6002 66.3661 21.754 66.1927C18.1953 66.0285 16.2653 65.4354 14.9787 64.9335C13.3947 64.3461 11.961 63.4142 10.7812 62.2051C9.56881 61.0262 8.63375 59.5924 8.04369 58.0076C7.54638 56.7256 6.94869 54.7911 6.789 51.2323C6.61563 47.3861 6.57912 46.2318 6.57912 36.4818C6.57912 26.7317 6.61563 25.5865 6.789 21.7403C6.95325 18.1816 7.54638 16.2471 8.04825 14.9604C8.70981 13.2586 9.50369 12.0404 10.7812 10.7629C12.0587 9.48544 13.2723 8.69613 14.9787 8.03456C16.2653 7.53269 18.1953 6.93956 21.754 6.77531C25.1211 6.62019 26.426 6.57456 33.2287 6.57V6.57912ZM55.9864 12.6381C55.4112 12.6381 54.8417 12.7514 54.3103 12.9715C53.7789 13.1916 53.296 13.5143 52.8893 13.921C52.4826 14.3277 52.16 14.8106 51.9398 15.342C51.7197 15.8734 51.6064 16.4429 51.6064 17.0181C51.6064 17.5933 51.7197 18.1629 51.9398 18.6943C52.16 19.2257 52.4826 19.7085 52.8893 20.1153C53.296 20.522 53.7789 20.8446 54.3103 21.0647C54.8417 21.2848 55.4112 21.3981 55.9864 21.3981C57.1481 21.3981 58.2622 20.9367 59.0836 20.1153C59.905 19.2938 60.3664 18.1798 60.3664 17.0181C60.3664 15.8565 59.905 14.7424 59.0836 13.921C58.2622 13.0996 57.1481 12.6381 55.9864 12.6381ZM36.5046 17.7572C34.0183 17.7185 31.5492 18.1747 29.241 19.0993C26.9327 20.0239 24.8315 21.3984 23.0596 23.1429C21.2876 24.8874 19.8805 26.967 18.92 29.2605C17.9595 31.554 17.4648 34.0157 17.4648 36.5023C17.4648 38.9888 17.9595 41.4505 18.92 43.7441C19.8805 46.0376 21.2876 48.1171 23.0596 49.8616C24.8315 51.6061 26.9327 52.9807 29.241 53.9053C31.5492 54.8299 34.0183 55.2861 36.5046 55.2473C41.4254 55.1705 46.1187 53.1619 49.5715 49.6548C53.0242 46.1478 54.9594 41.4237 54.9594 36.5023C54.9594 31.5808 53.0242 26.8568 49.5715 23.3497C46.1187 19.8427 41.4254 17.834 36.5046 17.7572ZM36.5046 24.3318C38.1025 24.3318 39.6848 24.6466 41.1611 25.2581C42.6374 25.8696 43.9789 26.7659 45.1088 27.8958C46.2387 29.0257 47.135 30.3671 47.7465 31.8434C48.358 33.3197 48.6728 34.9021 48.6728 36.5C48.6728 38.0979 48.358 39.6803 47.7465 41.1566C47.135 42.6329 46.2387 43.9743 45.1088 45.1042C43.9789 46.2341 42.6374 47.1304 41.1611 47.7419C39.6848 48.3534 38.1025 48.6682 36.5046 48.6682C33.2774 48.6682 30.1823 47.3862 27.9004 45.1042C25.6184 42.8222 24.3364 39.7272 24.3364 36.5C24.3364 33.2728 25.6184 30.1778 27.9004 27.8958C30.1823 25.6138 33.2774 24.3318 36.5046 24.3318Z" fill="black"/>
</g>
<defs>
<clipPath id="clip0_43_88">
<rect width="73" height="73" fill="white"/>
</clipPath>
</defs>
</svg>
