<svg width="73" height="73" viewBox="0 0 73 73" fill="none" xmlns="http://www.w3.org/2000/svg">
<path d="M34.2195 4.5625V36.5H38.782V4.5625H34.2195Z" fill="black"/>
<path d="M13.6882 40.2047C13.6875 36.1304 14.7781 32.1302 16.8466 28.6199C18.915 25.1096 21.8859 22.2174 25.4503 20.2438L23.2375 16.2562C17.9474 19.1856 13.7761 23.7842 11.3749 29.334C8.97362 34.8839 8.47755 41.0726 9.96409 46.9341C11.4506 52.7955 14.8361 57.9999 19.592 61.7346C24.348 65.4693 30.2066 67.5241 36.2534 67.5784C42.3002 67.6326 48.1948 65.6832 53.017 62.0345C57.8392 58.3857 61.3175 53.243 62.909 47.4091C64.5004 41.5753 64.1155 35.3786 61.8142 29.7866C59.5129 24.1946 55.4249 19.5219 50.1882 16.498L47.9024 20.4445C51.3709 22.446 54.2515 25.3253 56.2545 28.793C58.2575 32.2607 59.3124 36.1945 59.3132 40.1991C59.3139 44.2037 58.2605 48.1379 56.2588 51.6063C54.2571 55.0748 51.3776 57.9551 47.9098 59.9579C44.442 61.9607 40.5081 63.0154 36.5035 63.0159C32.4989 63.0164 28.5647 61.9627 25.0964 59.9607C21.6282 57.9588 18.748 55.0791 16.7454 51.6112C14.7428 48.1433 13.6884 44.2093 13.6882 40.2047Z" fill="black"/>
</svg>
