<svg width="50" height="50" viewBox="0 0 50 50" fill="none" xmlns="http://www.w3.org/2000/svg">
<path d="M49.975 13.1375C49.7542 18 46.3563 24.6594 39.7812 33.1156C32.9833 41.9552 27.2313 46.375 22.525 46.375C19.6083 46.375 17.1427 43.6844 15.1281 38.3031L11.0938 23.5094C9.59375 18.126 7.98646 15.4354 6.27188 15.4375C5.90104 15.4396 4.59479 16.225 2.35313 17.7937L0 14.7625C2.44736 12.6129 4.87867 10.4452 7.29375 8.25937C10.5875 5.41771 13.0594 3.92083 14.7094 3.76875C18.5948 3.38333 20.9885 6.04271 21.8906 11.7469C22.8615 17.8969 23.5344 21.7156 23.9094 23.2031C25.0344 28.301 26.2698 30.8479 27.6156 30.8437C28.6573 30.8437 30.2281 29.1906 32.3281 25.8844C34.424 22.5781 35.5458 20.0625 35.6938 18.3375C35.9938 15.4833 34.8719 14.0562 32.3281 14.0562C31.0511 14.073 29.7909 14.3506 28.625 14.8719C31.0896 6.83021 35.7854 2.91771 42.7125 3.13438C47.85 3.29063 50.2708 6.62708 49.975 13.1375Z" fill="white"/>
</svg>
