<svg width="47" height="47" viewBox="0 0 47 47" fill="none" xmlns="http://www.w3.org/2000/svg">
<path d="M45.1905 17.9628C45.3382 17.8194 45.4531 17.6456 45.5272 17.4535C45.6013 17.2614 45.6328 17.0555 45.6197 16.85C45.6066 16.6445 45.5491 16.4443 45.4512 16.2632C45.3532 16.0821 45.2172 15.9243 45.0524 15.8008C38.7901 11.2468 31.2431 8.7997 23.5 8.8125C15.4483 8.8125 7.99882 11.4034 1.94757 15.8008C1.78261 15.9241 1.64634 16.0817 1.54814 16.2627C1.44995 16.4437 1.39215 16.6438 1.37875 16.8493C1.36535 17.0548 1.39666 17.2608 1.47051 17.453C1.54437 17.6452 1.65902 17.8192 1.80657 17.9628C2.06389 18.2146 2.40188 18.3674 2.76089 18.3943C3.11991 18.4212 3.47688 18.3204 3.76882 18.1097C9.51223 13.9652 16.4174 11.7396 23.5 11.75C30.8643 11.75 37.6793 14.1059 43.2283 18.1068C43.8304 18.5415 44.6676 18.4886 45.1905 17.9628Z" fill="black"/>
<path d="M38.8602 24.2961C39.0115 24.15 39.1285 23.9721 39.2024 23.7752C39.2764 23.5783 39.3056 23.3674 39.2879 23.1578C39.2702 22.9483 39.206 22.7453 39.1 22.5636C38.994 22.3819 38.8488 22.2262 38.6751 22.1076C34.158 19.1744 28.8859 17.617 23.5 17.625C17.904 17.625 12.69 19.27 8.32486 22.1076C8.15023 22.2255 8.00423 22.381 7.89759 22.5627C7.79095 22.7444 7.72638 22.9476 7.70863 23.1576C7.69088 23.3675 7.72039 23.5787 7.79501 23.7757C7.86962 23.9728 7.98744 24.1506 8.13979 24.2961C8.39008 24.5403 8.71596 24.6923 9.06398 24.727C9.41199 24.7617 9.76146 24.6771 10.055 24.487C14.0677 21.9169 18.7348 20.5546 23.5 20.5625C28.2642 20.5551 32.9301 21.9174 36.942 24.487C37.5471 24.8748 38.352 24.8042 38.8602 24.2961ZM32.4476 30.7086C33.1115 30.0448 32.991 28.9314 32.1539 28.5055C29.4723 27.1443 26.5072 26.4357 23.5 26.4375C20.3862 26.4375 17.4429 27.1836 14.8461 28.5055C14.0089 28.9314 13.8885 30.0448 14.5524 30.7086L14.5964 30.7527C15.0664 31.2227 15.792 31.3108 16.3912 31.0171C18.6046 29.9348 21.0362 29.3732 23.5 29.375C26.0497 29.375 28.4644 29.9654 30.6087 31.02C31.205 31.3138 31.9306 31.2256 32.4006 30.7527L32.4476 30.7086ZM26.6137 36.5425C27.1895 35.9667 27.1954 35.015 26.4962 34.6037C25.5894 34.0657 24.5544 33.7816 23.5 33.7812C22.4455 33.7816 21.4106 34.0657 20.5037 34.6037C19.8046 35.015 19.8105 35.9667 20.3862 36.5425L22.4601 38.6164C22.7355 38.8917 23.1091 39.0464 23.4985 39.0464C23.888 39.0464 24.2615 38.8917 24.5369 38.6164L26.6137 36.5425Z" fill="black"/>
</svg>
